<?xml version="1.0" encoding="UTF-8" standalone="no"?>
<!-- Created with Inkscape (http://www.inkscape.org/) -->

<svg
   width="210mm"
   height="297mm"
   viewBox="0 0 210 297"
   version="1.1"
   id="svg1"
   inkscape:version="1.3.2 (091e20e, 2023-11-25, custom)"
   sodipodi:docname="fragile_plant.svg"
   xmlns:inkscape="http://www.inkscape.org/namespaces/inkscape"
   xmlns:sodipodi="http://sodipodi.sourceforge.net/DTD/sodipodi-0.dtd"
   xmlns="http://www.w3.org/2000/svg"
   xmlns:svg="http://www.w3.org/2000/svg">
  <sodipodi:namedview
     id="namedview1"
     pagecolor="#ffffff"
     bordercolor="#000000"
     borderopacity="0.25"
     inkscape:showpageshadow="2"
     inkscape:pageopacity="0.0"
     inkscape:pagecheckerboard="true"
     inkscape:deskcolor="#d1d1d1"
     inkscape:document-units="mm"
     inkscape:zoom="0.97890839"
     inkscape:cx="374.39663"
     inkscape:cy="543.97327"
     inkscape:window-width="1920"
     inkscape:window-height="991"
     inkscape:window-x="-9"
     inkscape:window-y="-9"
     inkscape:window-maximized="1"
     inkscape:current-layer="layer1" />
  <defs
     id="defs1">
    <linearGradient
       id="swatch2303"
       inkscape:swatch="solid"
       gradientTransform="matrix(1.2158751e-5,1.4525859e-5,6.5282129e-4,-5.4643864e-4,-624.90534,2226.6219)">
      <stop
         style="stop-color:#ababab;stop-opacity:1;"
         offset="0"
         id="stop2303" />
    </linearGradient>
  </defs>
  <g
     inkscape:label="Layer 1"
     inkscape:groupmode="layer"
     id="layer1">
    <ellipse
       style="display:inline;fill:#744123;fill-opacity:1;stroke:none;stroke-width:3.00001;stroke-linecap:round;stroke-linejoin:round;stroke-dasharray:none;stroke-opacity:1;paint-order:fill markers stroke"
       id="ellipse2136"
       cx="-15.259554"
       cy="170.67488"
       rx="23.49999"
       ry="23.5"
       transform="rotate(-39.930737)" />
    <path
       style="display:inline;fill:#65351b;fill-opacity:1;stroke:none;stroke-width:3.00001;stroke-linecap:round;stroke-linejoin:round;stroke-dasharray:none;stroke-opacity:1;paint-order:fill markers stroke"
       d="m 86.01691,129.18973 c -3.115615,2.61417 -6.672705,6.33533 -6.392258,10.39271 0.207748,3.00568 4.222268,4.37705 5.749523,6.97411 2.051939,3.48927 0.994229,9.17118 4.433866,11.30527 3.165244,1.96384 7.410335,-0.84066 11.133259,-0.96449 2.81639,-0.0937 6.20724,1.8717 8.45216,0.16841 3.27233,-2.48286 1.92296,-7.99056 3.08132,-11.93146 1.20755,-4.10823 6.05095,-8.4232 4.02917,-12.19789 -1.44524,-2.69829 -6.37421,-0.64038 -8.85437,-2.43436 -3.18841,-2.30627 -2.9741,-8.15705 -6.53529,-9.83122 -2.234981,-1.05071 -5.320978,-0.60364 -7.367973,0.77801 -1.855048,1.25208 -1.482889,4.43691 -3.151242,5.92869 -1.223501,1.09401 -3.320893,0.75721 -4.578165,1.81222 z"
       id="path2137"
       sodipodi:nodetypes="aaaaaaaaaaaaa" />
    <path
       style="display:inline;fill:#572a15;fill-opacity:1;stroke:none;stroke-width:3.00001;stroke-linecap:round;stroke-linejoin:round;stroke-dasharray:none;stroke-opacity:1;paint-order:fill markers stroke"
       d="m 87.451156,137.36697 c -1.47768,2.0669 -1.366968,5.41914 -0.100355,7.6217 1.446911,2.51605 5.067284,2.832 7.582655,4.28006 1.361311,0.78367 2.496104,2.48321 4.063813,2.38552 2.432241,-0.15155 4.450621,-2.42357 5.796611,-4.45509 1.50702,-2.27454 2.78443,-5.28976 2.06305,-7.92114 -1.18478,-4.32173 -5.07561,-9.7273 -9.548988,-9.46283 -2.395212,0.1416 -2.528559,4.23825 -4.480255,5.63398 -1.54776,1.10682 -4.269932,0.3699 -5.376531,1.9178 z"
       id="path2139"
       sodipodi:nodetypes="aaaaaaaaa" />
    <g
       id="g2140"
       transform="matrix(0.18524241,0,0,0.18524086,-606.55699,886.93746)"
       style="display:inline;stroke-width:5.39836">
      <g
         id="g2094"
         transform="matrix(0.87021643,-0.70935565,0.7093438,0.87021643,3305.2342,2152.2736)"
         style="display:inline;stroke-width:4.80838">
        <path
           style="fill:#4a970b;fill-opacity:1;stroke:none;stroke-width:1.27222px;stroke-linecap:butt;stroke-linejoin:miter;stroke-opacity:1"
           d="m 3807.728,-3993.2785 c 0,0 -4.5971,-35.6656 -2.1807,-50.975 10.6248,-67.3141 -56.5626,-101.4506 -63.2411,-92.9543 18.2225,48.7912 32.1218,98.5649 65.4218,143.9293 z"
           id="path2093"
           sodipodi:nodetypes="cscc" />
        <path
           style="fill:#69b50f;fill-opacity:1;stroke:none;stroke-width:1.27222px;stroke-linecap:butt;stroke-linejoin:miter;stroke-opacity:1"
           d="m 3742.3062,-4137.2078 c 31.8628,39.9319 48.6018,91.9629 65.4218,143.9292 -19.193,-23.1052 -32.3257,-21.3161 -47.4308,-41.9794 -41.0609,-56.17 -30.0903,-97.2615 -17.991,-101.9498 z"
           id="path2094"
           sodipodi:nodetypes="ccsc" />
      </g>
      <g
         id="g2109"
         transform="matrix(-0.98217657,0.18796212,0.18795842,0.98217669,8277.1664,-776.43181)"
         style="stroke-width:5.39836">
        <path
           style="fill:#2c8306;fill-opacity:1;stroke:none;stroke-width:1.42831px;stroke-linecap:butt;stroke-linejoin:miter;stroke-opacity:1"
           d="m 3807.728,-3993.2785 c 0,0 -4.5971,-35.6656 -2.1807,-50.975 10.6248,-67.3141 -56.5626,-101.4506 -63.2411,-92.9543 18.2225,48.7912 32.1218,98.5649 65.4218,143.9293 z"
           id="path2107"
           sodipodi:nodetypes="cscc" />
        <path
           style="fill:#6bb50f;fill-opacity:1;stroke:none;stroke-width:1.42831px;stroke-linecap:butt;stroke-linejoin:miter;stroke-opacity:1"
           d="m 3742.3062,-4137.2078 c 31.8628,39.9319 48.6018,91.9629 65.4218,143.9292 -19.193,-23.1052 -32.3257,-21.3161 -47.4308,-41.9794 -41.0609,-56.17 -30.0903,-97.2615 -17.991,-101.9498 z"
           id="path2108"
           sodipodi:nodetypes="ccsc" />
        <path
           style="fill:#277107;fill-opacity:1;stroke:none;stroke-width:1.42831px;stroke-linecap:butt;stroke-linejoin:miter;stroke-opacity:1"
           d="m 3742.3062,-4137.2078 c 31.8628,39.9319 48.6018,91.9629 65.4218,143.9292 -19.193,-23.1052 -32.3257,-21.3161 -47.4308,-41.9794 -41.0609,-56.17 -30.0903,-97.2615 -17.991,-101.9498 z"
           id="path2109"
           sodipodi:nodetypes="ccsc" />
      </g>
      <g
         id="g2128"
         transform="matrix(0.22189768,-0.90097516,-1.0240665,-0.04593394,-1114.8875,-712.00856)"
         style="stroke-width:5.58927">
        <path
           style="fill:#69b60c;fill-opacity:1;stroke:none;stroke-width:1.47882px;stroke-linecap:butt;stroke-linejoin:miter;stroke-opacity:1"
           d="m 3807.728,-3993.2785 c 0,0 -4.5971,-35.6656 -2.1807,-50.975 10.6248,-67.3141 -56.5626,-101.4506 -63.2411,-92.9543 18.2225,48.7912 32.1218,98.5649 65.4218,143.9293 z"
           id="path2120"
           sodipodi:nodetypes="cscc" />
        <path
           style="fill:#4a9809;fill-opacity:1;stroke:none;stroke-width:1.47882px;stroke-linecap:butt;stroke-linejoin:miter;stroke-opacity:1"
           d="m 3742.3062,-4137.2078 c 31.8628,39.9319 48.6018,91.9629 65.4218,143.9292 -19.193,-23.1052 -32.3257,-21.3161 -47.4308,-41.9794 -41.0609,-56.17 -30.0903,-97.2615 -17.991,-101.9498 z"
           id="path2128"
           sodipodi:nodetypes="ccsc" />
      </g>
      <g
         id="g2120"
         transform="matrix(-0.09970647,0.62614602,-0.62613555,-0.09970646,1728.7267,-6766.2083)"
         style="stroke-width:8.51436">
        <path
           style="fill:#2c8306;fill-opacity:1;stroke:none;stroke-width:2.25275px;stroke-linecap:butt;stroke-linejoin:miter;stroke-opacity:1"
           d="m 3807.728,-3993.2785 c 0,0 -4.5971,-35.6656 -2.1807,-50.975 10.6248,-67.3141 -56.5626,-101.4506 -63.2411,-92.9543 18.2225,48.7912 32.1218,98.5649 65.4218,143.9293 z"
           id="path2116"
           sodipodi:nodetypes="cscc" />
        <path
           style="fill:#6bb50f;fill-opacity:1;stroke:none;stroke-width:2.25275px;stroke-linecap:butt;stroke-linejoin:miter;stroke-opacity:1"
           d="m 3742.3062,-4137.2078 c 31.8628,39.9319 48.6018,91.9629 65.4218,143.9292 -19.193,-23.1052 -32.3257,-21.3161 -47.4308,-41.9794 -41.0609,-56.17 -30.0903,-97.2615 -17.991,-101.9498 z"
           id="path2117"
           sodipodi:nodetypes="ccsc" />
        <path
           style="fill:#277107;fill-opacity:1;stroke:none;stroke-width:2.25275px;stroke-linecap:butt;stroke-linejoin:miter;stroke-opacity:1"
           d="m 3742.3062,-4137.2078 c 31.8628,39.9319 48.6018,91.9629 65.4218,143.9292 -19.193,-23.1052 -32.3257,-21.3161 -47.4308,-41.9794 -41.0609,-56.17 -30.0903,-97.2615 -17.991,-101.9498 z"
           id="path2118"
           sodipodi:nodetypes="ccsc" />
      </g>
      <g
         id="g2076"
         transform="translate(-1.0045323,5.8648465)"
         style="stroke-width:5.39836">
        <path
           style="fill:#94cc30;fill-opacity:1;stroke:none;stroke-width:1.42831px;stroke-linecap:butt;stroke-linejoin:miter;stroke-opacity:1"
           d="m 3807.728,-3993.2785 c 0,0 -4.5971,-35.6656 -2.1807,-50.975 10.6248,-67.3141 -56.5626,-101.4506 -63.2411,-92.9543 18.2225,48.7912 32.1218,98.5649 65.4218,143.9293 z"
           id="path2076"
           sodipodi:nodetypes="cscc" />
        <path
           style="fill:#6bb50f;fill-opacity:1;stroke:none;stroke-width:1.42831px;stroke-linecap:butt;stroke-linejoin:miter;stroke-opacity:1"
           d="m 3742.3062,-4137.2078 c 31.8628,39.9319 48.6018,91.9629 65.4218,143.9292 -19.193,-23.1052 -32.3257,-21.3161 -47.4308,-41.9794 -41.0609,-56.17 -30.0903,-97.2615 -17.991,-101.9498 z"
           id="path2075"
           sodipodi:nodetypes="ccsc" />
      </g>
      <g
         id="g2085"
         transform="matrix(-0.70255038,-0.29858755,0.32905791,-0.63748441,7776.0188,-5390.927)"
         style="stroke-width:7.30499">
        <path
           style="fill:#94cc30;fill-opacity:1;stroke:none;stroke-width:1.93277px;stroke-linecap:butt;stroke-linejoin:miter;stroke-opacity:1"
           d="m 3807.728,-3993.2785 c 0,0 -4.5971,-35.6656 -2.1807,-50.975 10.6248,-67.3141 -56.5626,-101.4506 -63.2411,-92.9543 18.2225,48.7912 32.1218,98.5649 65.4218,143.9293 z"
           id="path2084"
           sodipodi:nodetypes="cscc" />
        <path
           style="fill:#6bb50f;fill-opacity:1;stroke:none;stroke-width:1.93277px;stroke-linecap:butt;stroke-linejoin:miter;stroke-opacity:1"
           d="m 3742.3062,-4137.2078 c 31.8628,39.9319 48.6018,91.9629 65.4218,143.9292 -19.193,-23.1052 -32.3257,-21.3161 -47.4308,-41.9794 -41.0609,-56.17 -30.0903,-97.2615 -17.991,-101.9498 z"
           id="path2085"
           sodipodi:nodetypes="ccsc" />
      </g>
      <g
         id="g2115"
         transform="matrix(-0.59886762,-0.70876457,-0.63864249,0.80185319,3561.9471,1896.7255)"
         style="stroke-width:5.58927">
        <path
           style="fill:#69b60c;fill-opacity:1;stroke:none;stroke-width:1.47882px;stroke-linecap:butt;stroke-linejoin:miter;stroke-opacity:1"
           d="m 3807.728,-3993.2785 c 0,0 -4.5971,-35.6656 -2.1807,-50.975 10.6248,-67.3141 -56.5626,-101.4506 -63.2411,-92.9543 18.2225,48.7912 32.1218,98.5649 65.4218,143.9293 z"
           id="path2113"
           sodipodi:nodetypes="cscc" />
        <path
           style="fill:#4a9809;fill-opacity:1;stroke:none;stroke-width:1.47882px;stroke-linecap:butt;stroke-linejoin:miter;stroke-opacity:1"
           d="m 3742.3062,-4137.2078 c 31.8628,39.9319 48.6018,91.9629 65.4218,143.9292 -19.193,-23.1052 -32.3257,-21.3161 -47.4308,-41.9794 -41.0609,-56.17 -30.0903,-97.2615 -17.991,-101.9498 z"
           id="path2115"
           sodipodi:nodetypes="ccsc" />
      </g>
      <g
         id="g2078"
         transform="matrix(0.62544177,-0.78027736,0.78026432,0.62544177,4535.7357,1463.5695)"
         style="stroke-width:5.39836">
        <path
           style="fill:#94cc30;fill-opacity:1;stroke:none;stroke-width:1.42831px;stroke-linecap:butt;stroke-linejoin:miter;stroke-opacity:1"
           d="m 3807.728,-3993.2785 c 0,0 -4.5971,-35.6656 -2.1807,-50.975 10.6248,-67.3141 -56.5626,-101.4506 -63.2411,-92.9543 18.2225,48.7912 32.1218,98.5649 65.4218,143.9293 z"
           id="path2077"
           sodipodi:nodetypes="cscc" />
        <path
           style="fill:#6bb50f;fill-opacity:1;stroke:none;stroke-width:1.42831px;stroke-linecap:butt;stroke-linejoin:miter;stroke-opacity:1"
           d="m 3742.3062,-4137.2078 c 31.8628,39.9319 48.6018,91.9629 65.4218,143.9292 -19.193,-23.1052 -32.3257,-21.3161 -47.4308,-41.9794 -41.0609,-56.17 -30.0903,-97.2615 -17.991,-101.9498 z"
           id="path2078"
           sodipodi:nodetypes="ccsc" />
      </g>
      <g
         id="g2080"
         transform="matrix(-0.42880208,-0.903406,0.9033909,-0.42880208,9044.5683,-2277.7782)"
         style="stroke-width:5.39836">
        <path
           style="fill:#94cc30;fill-opacity:1;stroke:none;stroke-width:1.42831px;stroke-linecap:butt;stroke-linejoin:miter;stroke-opacity:1"
           d="m 3807.728,-3993.2785 c 0,0 -4.5971,-35.6656 -2.1807,-50.975 10.6248,-67.3141 -56.5626,-101.4506 -63.2411,-92.9543 18.2225,48.7912 32.1218,98.5649 65.4218,143.9293 z"
           id="path2079"
           sodipodi:nodetypes="cscc" />
        <path
           style="fill:#6bb50f;fill-opacity:1;stroke:none;stroke-width:1.42831px;stroke-linecap:butt;stroke-linejoin:miter;stroke-opacity:1"
           d="m 3742.3062,-4137.2078 c 31.8628,39.9319 48.6018,91.9629 65.4218,143.9292 -19.193,-23.1052 -32.3257,-21.3161 -47.4308,-41.9794 -41.0609,-56.17 -30.0903,-97.2615 -17.991,-101.9498 z"
           id="path2080"
           sodipodi:nodetypes="ccsc" />
        <path
           style="fill:#6bb50f;fill-opacity:1;stroke:none;stroke-width:1.42831px;stroke-linecap:butt;stroke-linejoin:miter;stroke-opacity:1"
           d="m 3742.3062,-4137.2078 c 31.8628,39.9319 48.6018,91.9629 65.4218,143.9292 -19.193,-23.1052 -32.3257,-21.3161 -47.4308,-41.9794 -41.0609,-56.17 -30.0903,-97.2615 -17.991,-101.9498 z"
           id="path2086"
           sodipodi:nodetypes="ccsc" />
      </g>
      <g
         id="g2083"
         transform="matrix(-1.1219986,0.03965769,-0.03965704,-1.1219986,7904.9238,-8640.4039)"
         style="display:inline;stroke-width:4.80838">
        <path
           style="fill:#4a970b;fill-opacity:1;stroke:none;stroke-width:1.27222px;stroke-linecap:butt;stroke-linejoin:miter;stroke-opacity:1"
           d="m 3807.728,-3993.2785 c 0,0 -4.5971,-35.6656 -2.1807,-50.975 10.6248,-67.3141 -56.5626,-101.4506 -63.2411,-92.9543 18.2225,48.7912 32.1218,98.5649 65.4218,143.9293 z"
           id="path2081"
           sodipodi:nodetypes="cscc" />
        <path
           style="fill:#69b50f;fill-opacity:1;stroke:none;stroke-width:1.27222px;stroke-linecap:butt;stroke-linejoin:miter;stroke-opacity:1"
           d="m 3742.3062,-4137.2078 c 31.8628,39.9319 48.6018,91.9629 65.4218,143.9292 -19.193,-23.1052 -32.3257,-21.3161 -47.4308,-41.9794 -41.0609,-56.17 -30.0903,-97.2615 -17.991,-101.9498 z"
           id="path2083"
           sodipodi:nodetypes="ccsc" />
      </g>
      <g
         id="g2091"
         transform="matrix(-0.17927085,-0.98380797,0.98379153,-0.17927085,8404.6112,-973.39488)"
         style="stroke-width:5.39836">
        <path
           style="fill:#2c8306;fill-opacity:1;stroke:none;stroke-width:1.42831px;stroke-linecap:butt;stroke-linejoin:miter;stroke-opacity:1"
           d="m 3807.728,-3993.2785 c 0,0 -4.5971,-35.6656 -2.1807,-50.975 10.6248,-67.3141 -56.5626,-101.4506 -63.2411,-92.9543 18.2225,48.7912 32.1218,98.5649 65.4218,143.9293 z"
           id="path2087"
           sodipodi:nodetypes="cscc" />
        <path
           style="fill:#6bb50f;fill-opacity:1;stroke:none;stroke-width:1.42831px;stroke-linecap:butt;stroke-linejoin:miter;stroke-opacity:1"
           d="m 3742.3062,-4137.2078 c 31.8628,39.9319 48.6018,91.9629 65.4218,143.9292 -19.193,-23.1052 -32.3257,-21.3161 -47.4308,-41.9794 -41.0609,-56.17 -30.0903,-97.2615 -17.991,-101.9498 z"
           id="path2088"
           sodipodi:nodetypes="ccsc" />
        <path
           style="fill:#277107;fill-opacity:1;stroke:none;stroke-width:1.42831px;stroke-linecap:butt;stroke-linejoin:miter;stroke-opacity:1"
           d="m 3742.3062,-4137.2078 c 31.8628,39.9319 48.6018,91.9629 65.4218,143.9292 -19.193,-23.1052 -32.3257,-21.3161 -47.4308,-41.9794 -41.0609,-56.17 -30.0903,-97.2615 -17.991,-101.9498 z"
           id="path2090"
           sodipodi:nodetypes="ccsc" />
      </g>
      <g
         id="g2092"
         transform="matrix(0.05653441,-0.76127763,0.70947315,0.10633313,6414.8077,-682.81955)"
         style="stroke-width:7.30499">
        <path
           style="fill:#69b60c;fill-opacity:1;stroke:none;stroke-width:1.93277px;stroke-linecap:butt;stroke-linejoin:miter;stroke-opacity:1"
           d="m 3807.728,-3993.2785 c 0,0 -4.5971,-35.6656 -2.1807,-50.975 10.6248,-67.3141 -56.5626,-101.4506 -63.2411,-92.9543 18.2225,48.7912 32.1218,98.5649 65.4218,143.9293 z"
           id="path2091"
           sodipodi:nodetypes="cscc" />
        <path
           style="fill:#4a9809;fill-opacity:1;stroke:none;stroke-width:1.93277px;stroke-linecap:butt;stroke-linejoin:miter;stroke-opacity:1"
           d="m 3742.3062,-4137.2078 c 31.8628,39.9319 48.6018,91.9629 65.4218,143.9292 -19.193,-23.1052 -32.3257,-21.3161 -47.4308,-41.9794 -41.0609,-56.17 -30.0903,-97.2615 -17.991,-101.9498 z"
           id="path2092"
           sodipodi:nodetypes="ccsc" />
      </g>
      <g
         id="g2097"
         transform="matrix(-0.68772089,0.72598125,-0.72596912,-0.68772089,3507.6774,-9517.6571)"
         style="stroke-width:5.39836">
        <path
           style="fill:#2c8306;fill-opacity:1;stroke:none;stroke-width:1.42831px;stroke-linecap:butt;stroke-linejoin:miter;stroke-opacity:1"
           d="m 3807.728,-3993.2785 c 0,0 -4.5971,-35.6656 -2.1807,-50.975 10.6248,-67.3141 -56.5626,-101.4506 -63.2411,-92.9543 18.2225,48.7912 32.1218,98.5649 65.4218,143.9293 z"
           id="path2095"
           sodipodi:nodetypes="cscc" />
        <path
           style="fill:#6bb50f;fill-opacity:1;stroke:none;stroke-width:1.42831px;stroke-linecap:butt;stroke-linejoin:miter;stroke-opacity:1"
           d="m 3742.3062,-4137.2078 c 31.8628,39.9319 48.6018,91.9629 65.4218,143.9292 -19.193,-23.1052 -32.3257,-21.3161 -47.4308,-41.9794 -41.0609,-56.17 -30.0903,-97.2615 -17.991,-101.9498 z"
           id="path2096"
           sodipodi:nodetypes="ccsc" />
        <path
           style="fill:#277107;fill-opacity:1;stroke:none;stroke-width:1.42831px;stroke-linecap:butt;stroke-linejoin:miter;stroke-opacity:1"
           d="m 3742.3062,-4137.2078 c 31.8628,39.9319 48.6018,91.9629 65.4218,143.9292 -19.193,-23.1052 -32.3257,-21.3161 -47.4308,-41.9794 -41.0609,-56.17 -30.0903,-97.2615 -17.991,-101.9498 z"
           id="path2097"
           sodipodi:nodetypes="ccsc" />
      </g>
      <g
         id="g2106"
         transform="matrix(-0.91601841,0.40113955,-0.40113337,-0.9160182,5688.3511,-9180.5567)"
         style="stroke-width:5.39836">
        <path
           style="fill:#2c8306;fill-opacity:1;stroke:none;stroke-width:1.42831px;stroke-linecap:butt;stroke-linejoin:miter;stroke-opacity:1"
           d="m 3807.728,-3993.2785 c 0,0 -4.5971,-35.6656 -2.1807,-50.975 10.6248,-67.3141 -56.5626,-101.4506 -63.2411,-92.9543 18.2225,48.7912 32.1218,98.5649 65.4218,143.9293 z"
           id="path2104"
           sodipodi:nodetypes="cscc" />
        <path
           style="fill:#6bb50f;fill-opacity:1;stroke:none;stroke-width:1.42831px;stroke-linecap:butt;stroke-linejoin:miter;stroke-opacity:1"
           d="m 3742.3062,-4137.2078 c 31.8628,39.9319 48.6018,91.9629 65.4218,143.9292 -19.193,-23.1052 -32.3257,-21.3161 -47.4308,-41.9794 -41.0609,-56.17 -30.0903,-97.2615 -17.991,-101.9498 z"
           id="path2105"
           sodipodi:nodetypes="ccsc" />
        <path
           style="fill:#277107;fill-opacity:1;stroke:none;stroke-width:1.42831px;stroke-linecap:butt;stroke-linejoin:miter;stroke-opacity:1"
           d="m 3742.3062,-4137.2078 c 31.8628,39.9319 48.6018,91.9629 65.4218,143.9292 -19.193,-23.1052 -32.3257,-21.3161 -47.4308,-41.9794 -41.0609,-56.17 -30.0903,-97.2615 -17.991,-101.9498 z"
           id="path2106"
           sodipodi:nodetypes="ccsc" />
      </g>
      <g
         id="g2112"
         transform="matrix(-0.96422264,-0.26509599,-0.26509156,0.96422264,6414.3481,870.02432)"
         style="stroke-width:5.39836">
        <path
           style="fill:#94cc30;fill-opacity:1;stroke:none;stroke-width:1.42831px;stroke-linecap:butt;stroke-linejoin:miter;stroke-opacity:1"
           d="m 3807.728,-3993.2785 c 0,0 -4.5971,-35.6656 -2.1807,-50.975 10.6248,-67.3141 -56.5626,-101.4506 -63.2411,-92.9543 18.2225,48.7912 32.1218,98.5649 65.4218,143.9293 z"
           id="path2111"
           sodipodi:nodetypes="cscc" />
        <path
           style="fill:#6bb50f;fill-opacity:1;stroke:none;stroke-width:1.42831px;stroke-linecap:butt;stroke-linejoin:miter;stroke-opacity:1"
           d="m 3742.3062,-4137.2078 c 31.8628,39.9319 48.6018,91.9629 65.4218,143.9292 -19.193,-23.1052 -32.3257,-21.3161 -47.4308,-41.9794 -41.0609,-56.17 -30.0903,-97.2615 -17.991,-101.9498 z"
           id="path2112"
           sodipodi:nodetypes="ccsc" />
      </g>
    </g>
  </g>
</svg>
