<?xml version="1.0" encoding="UTF-8" standalone="no"?>
<!-- Created with Inkscape (http://www.inkscape.org/) -->

<svg
   width="55.970711mm"
   height="53.642578mm"
   viewBox="0 0 55.970711 53.642578"
   version="1.1"
   id="svg1"
   inkscape:version="1.3.2 (091e20e, 2023-11-25, custom)"
   sodipodi:docname="regular_plant.svg"
   xmlns:inkscape="http://www.inkscape.org/namespaces/inkscape"
   xmlns:sodipodi="http://sodipodi.sourceforge.net/DTD/sodipodi-0.dtd"
   xmlns:xlink="http://www.w3.org/1999/xlink"
   xmlns="http://www.w3.org/2000/svg"
   xmlns:svg="http://www.w3.org/2000/svg">
  <sodipodi:namedview
     id="namedview1"
     pagecolor="#ffffff"
     bordercolor="#666666"
     borderopacity="1"
     inkscape:showpageshadow="2"
     inkscape:pageopacity="0.0"
     inkscape:pagecheckerboard="true"
     inkscape:deskcolor="#d1d1d1"
     inkscape:document-units="mm"
     inkscape:zoom="1.9578168"
     inkscape:cx="110.58236"
     inkscape:cy="101.38845"
     inkscape:window-width="1920"
     inkscape:window-height="991"
     inkscape:window-x="-9"
     inkscape:window-y="-9"
     inkscape:window-maximized="1"
     inkscape:current-layer="g605"
     showborder="true"
     labelstyle="default" />
  <defs
     id="defs1">
    <linearGradient
       id="swatch2303"
       inkscape:swatch="solid"
       gradientTransform="matrix(0,6.3066247e-5,0.0028343,0,-1719.4973,1972.937)">
      <stop
         style="stop-color:#ababab;stop-opacity:1;"
         offset="0"
         id="stop2303" />
    </linearGradient>
    <linearGradient
       inkscape:collect="always"
       xlink:href="#linearGradient520"
       id="linearGradient594"
       gradientUnits="userSpaceOnUse"
       x1="2643.2866"
       y1="-4601.6108"
       x2="2669.2363"
       y2="-4769.8008" />
    <linearGradient
       id="linearGradient520"
       inkscape:collect="always">
      <stop
         style="stop-color:#06571f;stop-opacity:1;"
         offset="0"
         id="stop521" />
      <stop
         style="stop-color:#4c8a44;stop-opacity:1;"
         offset="1"
         id="stop522" />
    </linearGradient>
    <linearGradient
       inkscape:collect="always"
       xlink:href="#linearGradient520"
       id="linearGradient1"
       gradientUnits="userSpaceOnUse"
       x1="2643.2866"
       y1="-4601.6108"
       x2="2669.2363"
       y2="-4769.8008" />
    <linearGradient
       inkscape:collect="always"
       xlink:href="#linearGradient520"
       id="linearGradient2"
       gradientUnits="userSpaceOnUse"
       x1="2643.2866"
       y1="-4601.6108"
       x2="2669.2363"
       y2="-4769.8008" />
    <linearGradient
       inkscape:collect="always"
       xlink:href="#linearGradient520"
       id="linearGradient3"
       gradientUnits="userSpaceOnUse"
       x1="2643.2866"
       y1="-4601.6108"
       x2="2669.2363"
       y2="-4769.8008" />
    <linearGradient
       inkscape:collect="always"
       xlink:href="#linearGradient520"
       id="linearGradient4"
       gradientUnits="userSpaceOnUse"
       x1="2643.2866"
       y1="-4601.6108"
       x2="2669.2363"
       y2="-4769.8008" />
    <linearGradient
       inkscape:collect="always"
       xlink:href="#linearGradient520"
       id="linearGradient5"
       gradientUnits="userSpaceOnUse"
       x1="2643.2866"
       y1="-4601.6108"
       x2="2669.2363"
       y2="-4769.8008" />
    <linearGradient
       inkscape:collect="always"
       xlink:href="#linearGradient520"
       id="linearGradient6"
       gradientUnits="userSpaceOnUse"
       x1="2643.2866"
       y1="-4601.6108"
       x2="2669.2363"
       y2="-4769.8008" />
    <linearGradient
       inkscape:collect="always"
       xlink:href="#linearGradient520"
       id="linearGradient7"
       gradientUnits="userSpaceOnUse"
       x1="2643.2866"
       y1="-4601.6108"
       x2="2669.2363"
       y2="-4769.8008" />
    <linearGradient
       inkscape:collect="always"
       xlink:href="#linearGradient520"
       id="linearGradient8"
       gradientUnits="userSpaceOnUse"
       x1="2643.2866"
       y1="-4601.6108"
       x2="2669.2363"
       y2="-4769.8008" />
    <linearGradient
       inkscape:collect="always"
       xlink:href="#linearGradient520"
       id="linearGradient9"
       gradientUnits="userSpaceOnUse"
       x1="2643.2866"
       y1="-4601.6108"
       x2="2669.2363"
       y2="-4769.8008" />
    <linearGradient
       inkscape:collect="always"
       xlink:href="#linearGradient520"
       id="linearGradient10"
       gradientUnits="userSpaceOnUse"
       x1="2643.2866"
       y1="-4601.6108"
       x2="2669.2363"
       y2="-4769.8008" />
    <linearGradient
       inkscape:collect="always"
       xlink:href="#linearGradient520"
       id="linearGradient11"
       gradientUnits="userSpaceOnUse"
       x1="2643.2866"
       y1="-4601.6108"
       x2="2669.2363"
       y2="-4769.8008" />
    <linearGradient
       inkscape:collect="always"
       xlink:href="#linearGradient520"
       id="linearGradient12"
       gradientUnits="userSpaceOnUse"
       x1="2643.2866"
       y1="-4601.6108"
       x2="2669.2363"
       y2="-4769.8008" />
    <linearGradient
       inkscape:collect="always"
       xlink:href="#linearGradient520"
       id="linearGradient13"
       gradientUnits="userSpaceOnUse"
       x1="2643.2866"
       y1="-4601.6108"
       x2="2669.2363"
       y2="-4769.8008" />
  </defs>
  <g
     inkscape:label="Layer 1"
     inkscape:groupmode="layer"
     id="layer1"
     transform="translate(-99.384531,-143.77625)">
    <g
       id="g605"
       inkscape:label="pots"
       transform="matrix(0.3003686,0,0,0.30036609,-1702.3012,863.15755)"
       style="display:inline;stroke-width:3.32926">
      <g
         id="g1991"
         transform="translate(1823.2097,-476.70379)">
        <g
           id="g1990"
           transform="translate(-313.47947,-23.443009)">
          <path
             style="fill:#65351b;fill-opacity:1;stroke:none;stroke-width:9.98779;stroke-linecap:round;stroke-linejoin:round;stroke-dasharray:none;stroke-opacity:1;paint-order:fill markers stroke"
             d="m 4577.4664,-1862.5211 c -13.5402,0.016 -30.573,1.9147 -38.5273,12.8723 -5.8925,8.1173 1.4258,20.1971 -0.2249,30.0909 -2.2178,13.2928 -17.0598,25.5382 -12.839,38.3367 3.8841,11.7775 20.7145,13.6892 30.4835,21.3287 7.3902,5.7793 11.847,18.0428 21.2179,18.4916 13.6597,0.6541 21.9843,-16.2903 33.3629,-23.8759 11.8617,-7.9077 33.4473,-8.5736 36.352,-22.5306 2.0764,-9.977 -14.9045,-15.2561 -17.4026,-25.136 -3.2115,-12.7012 9.8382,-27.18 4.3243,-39.0641 -3.4605,-7.4584 -12.2942,-12.9116 -20.4725,-13.7586 -7.4114,-0.7676 -13.267,8.1584 -20.714,8.4017 -5.4613,0.1784 -10.0961,-5.1634 -15.5603,-5.1567 z"
             id="path1989"
             sodipodi:nodetypes="aaaaaaaaaaaaa" />
          <path
             style="fill:#572a15;fill-opacity:1;stroke:none;stroke-width:9.98779;stroke-linecap:round;stroke-linejoin:round;stroke-dasharray:none;stroke-opacity:1;paint-order:fill markers stroke"
             d="m 4563.6539,-1838.5801 c -8.1892,2.119 -15.07,10.9137 -16.5431,19.2434 -1.6827,9.5153 6.8847,18.0584 10.2119,27.1304 1.8007,4.9097 1.066,11.6735 5.277,14.7742 6.5332,4.8106 16.5411,3.3234 24.3185,1.0133 8.7078,-2.5864 18.4122,-7.5544 22.1936,-15.8137 6.2105,-13.565 7.8287,-35.6796 -4.1567,-44.5637 -6.4174,-4.7569 -15.512,5.4167 -23.4771,4.8093 -6.3165,-0.4818 -11.6913,-8.1802 -17.8241,-6.5932 z"
             id="path1990"
             sodipodi:nodetypes="aaaaaaaaa" />
        </g>
        <g
           id="g1971"
           inkscape:label="palmes"
           style="display:inline;stroke-width:3.32926"
           transform="matrix(0.33396453,0,0,0.33396453,3384.1793,-317.97439)">
          <g
             id="g594"
             transform="matrix(-0.56362547,0.75638954,0.7563769,0.56362548,7536.1928,-3982.9935)">
            <path
               style="fill:url(#linearGradient1);fill-opacity:1;stroke:none;stroke-width:0.880866px;stroke-linecap:butt;stroke-linejoin:miter;stroke-opacity:1"
               d="m 2640.494,-4570.0856 c -13.8089,-3.0805 -28.7253,-75.8267 -22.8976,-114.2166 5.8402,-38.4722 39.4568,-106.2146 55.8811,-102.495 13.7475,3.1134 19.3955,78.4106 13.0844,117.2151 -5.867,36.0741 -35.0815,101.9473 -46.0679,99.4965 z"
               id="path585"
               sodipodi:nodetypes="sasas" />
            <path
               style="fill:#043914;fill-opacity:1;stroke:none;stroke-width:0.880866px;stroke-linecap:butt;stroke-linejoin:miter;stroke-opacity:1"
               d="m 2665.4746,-4739.5583 c -18.2092,71.7218 -31.8411,144.7293 -27.3706,222.8218 l 8.481,3.855 c -5.4651,-75.6926 1.7463,-151.2411 18.8896,-226.6768 z"
               id="path588"
               sodipodi:nodetypes="cccc" />
          </g>
          <g
             id="g596"
             transform="matrix(0.00403889,-0.78329944,0.78328635,0.0040389,6157.6895,-2440.1088)">
            <path
               style="fill:url(#linearGradient2);fill-opacity:1;stroke:none;stroke-width:0.880866px;stroke-linecap:butt;stroke-linejoin:miter;stroke-opacity:1"
               d="m 2640.494,-4570.0856 c -13.8089,-3.0805 -28.7253,-75.8267 -22.8976,-114.2166 5.8402,-38.4722 39.4568,-106.2146 55.8811,-102.495 13.7475,3.1134 19.3955,78.4106 13.0844,117.2151 -5.867,36.0741 -35.0815,101.9473 -46.0679,99.4965 z"
               id="path595"
               sodipodi:nodetypes="sasas" />
            <path
               style="fill:#043914;fill-opacity:1;stroke:none;stroke-width:0.880866px;stroke-linecap:butt;stroke-linejoin:miter;stroke-opacity:1"
               d="m 2665.4746,-4739.5583 c -18.2092,71.7218 -31.8411,144.7293 -27.3706,222.8218 l 8.481,3.855 c -5.4651,-75.6926 1.7463,-151.2411 18.8896,-226.6768 z"
               id="path596"
               sodipodi:nodetypes="cccc" />
          </g>
          <g
             id="g599"
             transform="matrix(-0.04983043,0.38969857,-0.52170992,-0.06509641,406.4298,-5849.8688)">
            <path
               style="fill:url(#linearGradient3);fill-opacity:1;stroke:none;stroke-width:0.880866px;stroke-linecap:butt;stroke-linejoin:miter;stroke-opacity:1"
               d="m 2640.494,-4570.0856 c -13.8089,-3.0805 -28.7253,-75.8267 -22.8976,-114.2166 5.8402,-38.4722 39.4568,-106.2146 55.8811,-102.495 13.7475,3.1134 19.3955,78.4106 13.0844,117.2151 -5.867,36.0741 -35.0815,101.9473 -46.0679,99.4965 z"
               id="path597"
               sodipodi:nodetypes="sasas" />
            <path
               style="fill:#043914;fill-opacity:1;stroke:none;stroke-width:0.880866px;stroke-linecap:butt;stroke-linejoin:miter;stroke-opacity:1"
               d="m 2665.4746,-4739.5583 c -18.2092,71.7218 -31.8411,144.7293 -27.3706,222.8218 l 8.481,3.855 c -5.4651,-75.6926 1.7463,-151.2411 18.8896,-226.6768 z"
               id="path598"
               sodipodi:nodetypes="cccc" />
          </g>
          <g
             id="g600"
             transform="matrix(-0.44052676,0.54257292,-0.64618155,-0.52273442,892.85235,-8304.9415)">
            <path
               style="fill:url(#linearGradient4);fill-opacity:1;stroke:none;stroke-width:0.880866px;stroke-linecap:butt;stroke-linejoin:miter;stroke-opacity:1"
               d="m 2640.494,-4570.0856 c -13.8089,-3.0805 -28.7253,-75.8267 -22.8976,-114.2166 5.8402,-38.4722 39.4568,-106.2146 55.8811,-102.495 13.7475,3.1134 19.3955,78.4106 13.0844,117.2151 -5.867,36.0741 -35.0815,101.9473 -46.0679,99.4965 z"
               id="path599"
               sodipodi:nodetypes="sasas" />
            <path
               style="fill:#043914;fill-opacity:1;stroke:none;stroke-width:0.880866px;stroke-linecap:butt;stroke-linejoin:miter;stroke-opacity:1"
               d="m 2665.4746,-4739.5583 c -18.2092,71.7218 -31.8411,144.7293 -27.3706,222.8218 l 8.481,3.855 c -5.4651,-75.6926 1.7463,-151.2411 18.8896,-226.6768 z"
               id="path600"
               sodipodi:nodetypes="cccc" />
          </g>
          <g
             id="g602"
             transform="matrix(0.42633891,-0.89927668,-0.9605264,-0.53065635,-2812.5375,-4531.7726)">
            <path
               style="fill:url(#linearGradient5);fill-opacity:1;stroke:none;stroke-width:0.880866px;stroke-linecap:butt;stroke-linejoin:miter;stroke-opacity:1"
               d="m 2640.494,-4570.0856 c -13.8089,-3.0805 -28.7253,-75.8267 -22.8976,-114.2166 5.8402,-38.4722 39.4568,-106.2146 55.8811,-102.495 13.7475,3.1134 19.3955,78.4106 13.0844,117.2151 -5.867,36.0741 -35.0815,101.9473 -46.0679,99.4965 z"
               id="path601"
               sodipodi:nodetypes="sasas" />
            <path
               style="fill:#043914;fill-opacity:1;stroke:none;stroke-width:0.880866px;stroke-linecap:butt;stroke-linejoin:miter;stroke-opacity:1"
               d="m 2665.4746,-4739.5583 c -18.2092,71.7218 -31.8411,144.7293 -27.3706,222.8218 l 8.481,3.855 c -5.4651,-75.6926 1.7463,-151.2411 18.8896,-226.6768 z"
               id="path602"
               sodipodi:nodetypes="cccc" />
          </g>
          <g
             id="g609"
             transform="matrix(-0.02181887,0.9949826,-1.0964796,0.04398661,-2264.4249,-6959.8059)">
            <path
               style="fill:url(#linearGradient6);fill-opacity:1;stroke:none;stroke-width:0.880866px;stroke-linecap:butt;stroke-linejoin:miter;stroke-opacity:1"
               d="m 2640.494,-4570.0856 c -13.8089,-3.0805 -28.7253,-75.8267 -22.8976,-114.2166 5.8402,-38.4722 39.4568,-106.2146 55.8811,-102.495 13.7475,3.1134 19.3955,78.4106 13.0844,117.2151 -5.867,36.0741 -35.0815,101.9473 -46.0679,99.4965 z"
               id="path603"
               sodipodi:nodetypes="sasas" />
            <path
               style="fill:#043914;fill-opacity:1;stroke:none;stroke-width:0.880866px;stroke-linecap:butt;stroke-linejoin:miter;stroke-opacity:1"
               d="m 2665.4746,-4739.5583 c -18.2092,71.7218 -31.8411,144.7293 -27.3706,222.8218 l 8.481,3.855 c -5.4651,-75.6926 1.7463,-151.2411 18.8896,-226.6768 z"
               id="path606"
               sodipodi:nodetypes="cccc" />
          </g>
          <g
             id="g613"
             transform="matrix(0.57691448,0.81094424,-0.85302501,0.69033226,-2730.0167,-3555.4899)">
            <path
               style="fill:url(#linearGradient7);fill-opacity:1;stroke:none;stroke-width:0.880866px;stroke-linecap:butt;stroke-linejoin:miter;stroke-opacity:1"
               d="m 2640.494,-4570.0856 c -13.8089,-3.0805 -28.7253,-75.8267 -22.8976,-114.2166 5.8402,-38.4722 39.4568,-106.2146 55.8811,-102.495 13.7475,3.1134 19.3955,78.4106 13.0844,117.2151 -5.867,36.0741 -35.0815,101.9473 -46.0679,99.4965 z"
               id="path609"
               sodipodi:nodetypes="sasas" />
            <path
               style="fill:#043914;fill-opacity:1;stroke:none;stroke-width:0.880866px;stroke-linecap:butt;stroke-linejoin:miter;stroke-opacity:1"
               d="m 2665.4746,-4739.5583 c -18.2092,71.7218 -31.8411,144.7293 -27.3706,222.8218 l 8.481,3.855 c -5.4651,-75.6926 1.7463,-151.2411 18.8896,-226.6768 z"
               id="path611"
               sodipodi:nodetypes="cccc" />
          </g>
          <g
             id="g765"
             transform="matrix(0.8967178,0.43168298,-0.4137882,1.0163655,-1598.3439,-1077.8245)">
            <path
               style="fill:url(#linearGradient8);fill-opacity:1;stroke:none;stroke-width:0.880866px;stroke-linecap:butt;stroke-linejoin:miter;stroke-opacity:1"
               d="m 2640.494,-4570.0856 c -13.8089,-3.0805 -28.7253,-75.8267 -22.8976,-114.2166 5.8402,-38.4722 39.4568,-106.2146 55.8811,-102.495 13.7475,3.1134 19.3955,78.4106 13.0844,117.2151 -5.867,36.0741 -35.0815,101.9473 -46.0679,99.4965 z"
               id="path613"
               sodipodi:nodetypes="sasas" />
            <path
               style="fill:#043914;fill-opacity:1;stroke:none;stroke-width:0.880866px;stroke-linecap:butt;stroke-linejoin:miter;stroke-opacity:1"
               d="m 2665.4746,-4739.5583 c -18.2092,71.7218 -31.8411,144.7293 -27.3706,222.8218 l 8.481,3.855 c -5.4651,-75.6926 1.7463,-151.2411 18.8896,-226.6768 z"
               id="path614"
               sodipodi:nodetypes="cccc" />
          </g>
          <g
             id="g1141"
             transform="matrix(0.42637911,0.80975076,0.77296396,-0.44666383,4992.4565,-8679.6474)">
            <path
               style="fill:url(#linearGradient9);fill-opacity:1;stroke:none;stroke-width:0.880866px;stroke-linecap:butt;stroke-linejoin:miter;stroke-opacity:1"
               d="m 2640.494,-4570.0856 c -13.8089,-3.0805 -28.7253,-75.8267 -22.8976,-114.2166 5.8402,-38.4722 39.4568,-106.2146 55.8811,-102.495 13.7475,3.1134 19.3955,78.4106 13.0844,117.2151 -5.867,36.0741 -35.0815,101.9473 -46.0679,99.4965 z"
               id="path810"
               sodipodi:nodetypes="sasas" />
            <path
               style="fill:#043914;fill-opacity:1;stroke:none;stroke-width:0.880866px;stroke-linecap:butt;stroke-linejoin:miter;stroke-opacity:1"
               d="m 2665.4746,-4739.5583 c -18.2092,71.7218 -31.8411,144.7293 -27.3706,222.8218 l 8.481,3.855 c -5.4651,-75.6926 1.7463,-151.2411 18.8896,-226.6768 z"
               id="path812"
               sodipodi:nodetypes="cccc" />
          </g>
          <g
             id="g1620"
             transform="matrix(0.7611413,0.82772449,0.67704813,-0.8793598,3683.1739,-10680.218)"
             inkscape:transform-center-x="24.351417"
             inkscape:transform-center-y="38.989425">
            <path
               style="fill:url(#linearGradient10);fill-opacity:1;stroke:none;stroke-width:0.880866px;stroke-linecap:butt;stroke-linejoin:miter;stroke-opacity:1"
               d="m 2640.494,-4570.0856 c -13.8089,-3.0805 -28.7253,-75.8267 -22.8976,-114.2166 5.8402,-38.4722 39.4568,-106.2146 55.8811,-102.495 13.7475,3.1134 19.3955,78.4106 13.0844,117.2151 -5.867,36.0741 -35.0815,101.9473 -46.0679,99.4965 z"
               id="path1287"
               sodipodi:nodetypes="sasas" />
            <path
               style="fill:#043914;fill-opacity:1;stroke:none;stroke-width:0.880866px;stroke-linecap:butt;stroke-linejoin:miter;stroke-opacity:1"
               d="m 2665.4746,-4739.5583 c -18.2092,71.7218 -31.8411,144.7293 -27.3706,222.8218 l 8.481,3.855 c -5.4651,-75.6926 1.7463,-151.2411 18.8896,-226.6768 z"
               id="path1288"
               sodipodi:nodetypes="cccc" />
          </g>
          <g
             id="g1739"
             transform="matrix(0.61437461,0.44154179,0.27657892,-0.69886587,2259.8075,-8829.5048)"
             inkscape:transform-center-x="9.6814764"
             inkscape:transform-center-y="30.148918">
            <path
               style="fill:url(#linearGradient11);fill-opacity:1;stroke:none;stroke-width:0.880866px;stroke-linecap:butt;stroke-linejoin:miter;stroke-opacity:1"
               d="m 2640.494,-4570.0856 c -13.8089,-3.0805 -28.7253,-75.8267 -22.8976,-114.2166 5.8402,-38.4722 39.4568,-106.2146 55.8811,-102.495 13.7475,3.1134 19.3955,78.4106 13.0844,117.2151 -5.867,36.0741 -35.0815,101.9473 -46.0679,99.4965 z"
               id="path1737"
               sodipodi:nodetypes="sasas" />
            <path
               style="fill:#043914;fill-opacity:1;stroke:none;stroke-width:0.880866px;stroke-linecap:butt;stroke-linejoin:miter;stroke-opacity:1"
               d="m 2665.4746,-4739.5583 c -18.2092,71.7218 -31.8411,144.7293 -27.3706,222.8218 l 8.481,3.855 c -5.4651,-75.6926 1.7463,-151.2411 18.8896,-226.6768 z"
               id="path1738"
               sodipodi:nodetypes="cccc" />
          </g>
          <g
             id="g1915"
             transform="matrix(0.53372673,0.13664542,-0.08765379,-0.59466106,834.35464,-7552.6493)"
             inkscape:transform-center-x="-6.0111185"
             inkscape:transform-center-y="24.602874">
            <path
               style="fill:url(#linearGradient12);fill-opacity:1;stroke:none;stroke-width:0.880866px;stroke-linecap:butt;stroke-linejoin:miter;stroke-opacity:1"
               d="m 2640.494,-4570.0856 c -13.8089,-3.0805 -28.7253,-75.8267 -22.8976,-114.2166 5.8402,-38.4722 39.4568,-106.2146 55.8811,-102.495 13.7475,3.1134 19.3955,78.4106 13.0844,117.2151 -5.867,36.0741 -35.0815,101.9473 -46.0679,99.4965 z"
               id="path1913"
               sodipodi:nodetypes="sasas" />
            <path
               style="fill:#043914;fill-opacity:1;stroke:none;stroke-width:0.880866px;stroke-linecap:butt;stroke-linejoin:miter;stroke-opacity:1"
               d="m 2665.4746,-4739.5583 c -18.2092,71.7218 -31.8411,144.7293 -27.3706,222.8218 l 8.481,3.855 c -5.4651,-75.6926 1.7463,-151.2411 18.8896,-226.6768 z"
               id="path1915"
               sodipodi:nodetypes="cccc" />
          </g>
          <ellipse
             style="opacity:1;fill:#043914;fill-opacity:1;stroke:none;stroke-width:4.60216;stroke-dasharray:none;stroke-opacity:1;paint-order:stroke fill markers"
             id="path1971"
             cx="2637.4275"
             cy="-4520.8828"
             rx="17.786552"
             ry="16.219292" />
          <g
             id="g523"
             style="display:inline;stroke-width:3.32926">
            <path
               style="fill:url(#linearGradient13);fill-opacity:1;stroke:none;stroke-width:0.880866px;stroke-linecap:butt;stroke-linejoin:miter;stroke-opacity:1"
               d="m 2640.494,-4570.0856 c -13.8089,-3.0805 -28.7253,-75.8267 -22.8976,-114.2166 5.8402,-38.4722 39.4568,-106.2146 55.8811,-102.495 13.7475,3.1134 19.3955,78.4106 13.0844,117.2151 -5.867,36.0741 -35.0815,101.9473 -46.0679,99.4965 z"
               id="path520"
               sodipodi:nodetypes="sasas" />
            <path
               style="fill:#043914;fill-opacity:1;stroke:none;stroke-width:0.880866px;stroke-linecap:butt;stroke-linejoin:miter;stroke-opacity:1"
               d="m 2665.4746,-4739.5583 c -18.2092,71.7218 -31.8411,144.7293 -27.3706,222.8218 l 8.481,3.855 c -5.4651,-75.6926 1.7463,-151.2411 18.8896,-226.6768 z"
               id="path519"
               sodipodi:nodetypes="cccc" />
          </g>
          <g
             id="g585"
             transform="matrix(-1.148304,0.93411606,0.93410041,1.148304,9911.0943,-1787.9271)"
             style="display:inline;stroke-width:3.32926">
            <path
               style="fill:url(#linearGradient594);fill-opacity:1;stroke:none;stroke-width:0.880866px;stroke-linecap:butt;stroke-linejoin:miter;stroke-opacity:1"
               d="m 2640.494,-4570.0856 c -13.8089,-3.0805 -28.7253,-75.8267 -22.8976,-114.2166 5.8402,-38.4722 39.4568,-106.2146 55.8811,-102.495 13.7475,3.1134 19.3955,78.4106 13.0844,117.2151 -5.867,36.0741 -35.0815,101.9473 -46.0679,99.4965 z"
               id="path526"
               sodipodi:nodetypes="sasas" />
            <path
               style="fill:#043914;fill-opacity:1;stroke:none;stroke-width:0.880866px;stroke-linecap:butt;stroke-linejoin:miter;stroke-opacity:1"
               d="m 2665.4746,-4739.5583 c -16.7687,66.0481 -29.6557,133.1865 -28.0984,204.3823 l 8.2005,5.4468 c -3.3319,-70.0563 4.0267,-139.991 19.8979,-209.8291 z"
               id="path527"
               sodipodi:nodetypes="cccc" />
          </g>
        </g>
      </g>
      <g
         id="g2129"
         style="display:inline;stroke-width:5.39836"
         transform="matrix(0.61671695,0,0,0.61671695,4142.9591,-200.1731)" />
    </g>
  </g>
</svg>
